<?xml version="1.0" standalone="no"?>
<!DOCTYPE svg PUBLIC "-//W3C//DTD SVG 20010904//EN"
 "http://www.w3.org/TR/2001/REC-SVG-20010904/DTD/svg10.dtd">
<svg version="1.0" xmlns="http://www.w3.org/2000/svg"
 width="512.000000pt" height="512.000000pt" viewBox="0 0 512.000000 512.000000"
 preserveAspectRatio="xMidYMid meet">

<g transform="translate(0.000000,512.000000) scale(0.100000,-0.100000)"
fill="#000000" stroke="none">
<path d="M2942 2500 c-142 -37 -236 -95 -462 -285 -236 -198 -360 -255 -551
-255 -99 0 -213 22 -309 60 -29 11 -56 17 -61 13 -11 -13 -667 -1080 -691
-1126 -30 -57 -31 -156 -1 -212 25 -47 64 -85 113 -111 34 -18 94 -19 1560
-22 1129 -2 1536 0 1567 9 53 14 117 68 145 123 29 54 31 155 4 206 -34 65
-919 1565 -933 1581 -33 39 -261 50 -381 19z"/>
</g>
</svg>
